<?xml version="1.0" encoding="UTF-8"?>
<svg xmlns="http://www.w3.org/2000/svg" width="308.37" height="308.37" xmlns:xlink="http://www.w3.org/1999/xlink" viewBox="0 0 308.37 308.37">
  <defs>
    <linearGradient id="linear-gradient" x1="-479.09" y1="-180.76" x2="1428.56" y2="920.63" gradientUnits="userSpaceOnUse">
      <stop offset=".3" stop-color="#030712"/>
      <stop offset=".67" stop-color="#080e1a"/>
      <stop offset="1" stop-color="#111827"/>
    </linearGradient>
    <filter id="outer-glow-2" x="-451.26" y="-173.07" width="1807" height="1193" filterUnits="userSpaceOnUse">
      <feOffset dx="0" dy="0"/>
      <feGaussianBlur result="blur" stdDeviation="20"/>
      <feFlood flood-color="#10ff9c" flood-opacity="1"/>
      <feComposite in2="blur" operator="in"/>
      <feComposite in="SourceGraphic"/>
    </filter>
    <linearGradient id="linear-gradient-2" x1="-381.59" y1="860.9" x2="1287.3" y2="-102.64" gradientUnits="userSpaceOnUse">
      <stop offset="0" stop-color="#10ff9c"/>
      <stop offset=".41" stop-color="#11ff9c"/>
      <stop offset=".56" stop-color="#18ff9f"/>
      <stop offset=".66" stop-color="#24ffa4"/>
      <stop offset=".75" stop-color="#35ffab"/>
      <stop offset=".82" stop-color="#4bffb4"/>
      <stop offset=".89" stop-color="#66ffc0"/>
      <stop offset=".94" stop-color="#86ffcd"/>
      <stop offset="1" stop-color="#aaffdc"/>
      <stop offset="1" stop-color="#aeffde"/>
    </linearGradient>
    <linearGradient id="linear-gradient-3" x1="181.18" y1="539.42" x2="720.37" y2="228.12" gradientUnits="userSpaceOnUse">
      <stop offset="0" stop-color="#030712"/>
      <stop offset="1" stop-color="#374151"/>
    </linearGradient>
    <linearGradient id="linear-gradient-4" x1="181.18" y1="484.07" x2="720.37" y2="172.77" xlink:href="#linear-gradient-3"/>
    <linearGradient id="linear-gradient-5" x1="181.18" y1="484.07" x2="720.37" y2="172.77" gradientUnits="userSpaceOnUse">
      <stop offset="0" stop-color="#f9fafb"/>
      <stop offset="1" stop-color="#fff"/>
    </linearGradient>
    <linearGradient id="linear-gradient-6" x1="305.68" y1="410.39" x2="589.62" y2="246.46" gradientUnits="userSpaceOnUse">
      <stop offset="0" stop-color="#ff340f"/>
      <stop offset=".45" stop-color="#ff3510"/>
      <stop offset=".62" stop-color="#ff3c17"/>
      <stop offset=".73" stop-color="#ff4823"/>
      <stop offset=".83" stop-color="#ff5934"/>
      <stop offset=".91" stop-color="#ff6f4a"/>
      <stop offset=".98" stop-color="#ff8964"/>
      <stop offset="1" stop-color="#ff9570"/>
    </linearGradient>
    <filter id="outer-glow-7" x="251.74" y="208.93" width="384" height="239" filterUnits="userSpaceOnUse">
      <feOffset dx="0" dy="0"/>
      <feGaussianBlur result="blur-2" stdDeviation="5"/>
      <feFlood flood-color="#ff340f" flood-opacity="1"/>
      <feComposite in2="blur-2" operator="in"/>
      <feComposite in="SourceGraphic"/>
    </filter>
    <linearGradient id="linear-gradient-7" x1="305.68" y1="403.47" x2="589.62" y2="239.54" gradientUnits="userSpaceOnUse">
      <stop offset="0" stop-color="#ff340f"/>
      <stop offset=".45" stop-color="#ff3510"/>
      <stop offset=".62" stop-color="#ff3c17"/>
      <stop offset=".73" stop-color="#ff4823"/>
      <stop offset=".83" stop-color="#ff5934"/>
      <stop offset=".91" stop-color="#ff6f4a"/>
      <stop offset=".98" stop-color="#ff8964"/>
      <stop offset="1" stop-color="#ff9570"/>
    </linearGradient>
    <linearGradient id="linear-gradient-8" x1="305.68" y1="403.47" x2="589.62" y2="239.54" gradientUnits="userSpaceOnUse">
      <stop offset="0" stop-color="#fff2ed"/>
      <stop offset=".63" stop-color="#fff3ee"/>
      <stop offset=".86" stop-color="#fff8f5"/>
      <stop offset="1" stop-color="#fff"/>
    </linearGradient>
    <linearGradient id="linear-gradient-9" x1="450.77" y1="646.67" x2="450.77" y2="-280.4" gradientUnits="userSpaceOnUse">
      <stop offset="0" stop-color="#10ff9c"/>
      <stop offset="1" stop-color="#aeffde" stop-opacity="0"/>
    </linearGradient>
    <linearGradient id="linear-gradient-10" x1="177.48" y1="511.18" x2="270.64" y2="349.82" gradientUnits="userSpaceOnUse">
      <stop offset="0" stop-color="#10ff9c"/>
      <stop offset=".11" stop-color="#30ffa9" stop-opacity=".8"/>
      <stop offset=".24" stop-color="#51ffb7" stop-opacity=".59"/>
      <stop offset=".37" stop-color="#6dffc3" stop-opacity=".41"/>
      <stop offset=".5" stop-color="#84ffcc" stop-opacity=".26"/>
      <stop offset=".63" stop-color="#96ffd4" stop-opacity=".15"/>
      <stop offset=".75" stop-color="#a3ffd9" stop-opacity=".07"/>
      <stop offset=".88" stop-color="#abffdc" stop-opacity=".02"/>
      <stop offset="1" stop-color="#aeffde" stop-opacity="0"/>
    </linearGradient>
    <filter id="outer-glow-14" x="-65.26" y="156.93" width="577" height="550" filterUnits="userSpaceOnUse">
      <feOffset dx="0" dy="0"/>
      <feGaussianBlur result="blur-3" stdDeviation="20"/>
      <feFlood flood-color="#10ff9c" flood-opacity="1"/>
      <feComposite in2="blur-3" operator="in"/>
      <feComposite in="SourceGraphic"/>
    </filter>
    <linearGradient id="linear-gradient-11" x1="235.1" y1="245.41" x2="187.12" y2="162.3" gradientUnits="userSpaceOnUse">
      <stop offset="0" stop-color="#10ff9c"/>
      <stop offset=".11" stop-color="#30ffa9" stop-opacity=".8"/>
      <stop offset=".24" stop-color="#51ffb7" stop-opacity=".59"/>
      <stop offset=".37" stop-color="#6dffc3" stop-opacity=".41"/>
      <stop offset=".5" stop-color="#84ffcc" stop-opacity=".26"/>
      <stop offset=".63" stop-color="#96ffd4" stop-opacity=".15"/>
      <stop offset=".75" stop-color="#a3ffd9" stop-opacity=".07"/>
      <stop offset=".88" stop-color="#abffdc" stop-opacity=".02"/>
      <stop offset="1" stop-color="#aeffde" stop-opacity="0"/>
    </linearGradient>
    <filter id="outer-glow-15" x="-65.26" y="-36.07" width="577" height="480" filterUnits="userSpaceOnUse">
      <feOffset dx="0" dy="0"/>
      <feGaussianBlur result="blur-4" stdDeviation="20"/>
      <feFlood flood-color="#10ff9c" flood-opacity="1"/>
      <feComposite in2="blur-4" operator="in"/>
      <feComposite in="SourceGraphic"/>
    </filter>
    <filter id="AI_GaussianBlur_7">
      <feGaussianBlur stdDeviation="7"/>
    </filter>
    <linearGradient id="linear-gradient-12" x1="112.88" y1="199.44" x2="140.55" y2="183.46" xlink:href="#linear-gradient-2"/>
    <linearGradient id="linear-gradient-13" x1="106.16" y1="203.96" x2="109.08" y2="202.28" xlink:href="#linear-gradient-2"/>
    <linearGradient id="linear-gradient-14" x1="132.54" y1="158.25" x2="179.75" y2="131" xlink:href="#linear-gradient-2"/>
    <linearGradient id="linear-gradient-15" x1="150.84" y1="140.62" x2="185.42" y2="120.66" xlink:href="#linear-gradient-2"/>
    <linearGradient id="linear-gradient-16" x1="121.45" y1="184.32" x2="169.05" y2="156.84" xlink:href="#linear-gradient-2"/>
    <linearGradient id="linear-gradient-17" x1="188.99" y1="112.69" x2="200.55" y2="106.02" xlink:href="#linear-gradient-2"/>
    <linearGradient id="linear-gradient-18" x1="105.69" y1="202.68" x2="202.68" y2="105.69" gradientUnits="userSpaceOnUse">
      <stop offset="0" stop-color="#fff" stop-opacity=".05"/>
      <stop offset=".2" stop-color="#fff"/>
      <stop offset=".8" stop-color="#fff"/>
      <stop offset="1" stop-color="#fff" stop-opacity=".05"/>
    </linearGradient>
  </defs>
  <g style="isolation: isolate;">
    <g id="Layer_3" data-name="Layer 3">
      <rect x="-485.26" y="-170.07" width="1920" height="1080" style="fill: url(#linear-gradient);"/>
    </g>
    <g id="Layer_18_copy" data-name="Layer 18 copy">
      <g style="filter: url(#outer-glow-2);">
        <path d="M1295.14-89.07c-.28-.48-.89-.64-1.37-.37l-200.39,115.69.13,20.67-248.25,143.33-32.16-.07,76.02-43.89s.04-.04.06-.05c1.68.77,3.69,1.18,5.72,1.18,2.34,0,4.67-.51,6.44-1.54,1.81-1.05,2.81-2.47,2.81-4.01s-1.01-2.99-2.86-4.06c-3.59-2.07-9.41-2.08-12.97-.03-1.81,1.05-2.81,2.47-2.81,4.01,0,1.2.61,2.32,1.73,3.27l-197.28,113.9-20.65-11.92,217.53-125.59.16-.09,41.52.09,43.28-24.99c3.38,1.62,7.45,2.44,11.52,2.44,4.57,0,9.13-1.02,12.68-3.07,3.85-2.22,5.97-5.34,5.97-8.77s-2.15-6.6-6.06-8.85c-7.18-4.14-18.38-4.17-25.52-.05-3.85,2.22-5.97,5.34-5.97,8.76,0,2.33,1,4.51,2.84,6.38l-40.08,23.14-38.87-.08-.11-17.25,71.75-41.43,42.22.09,271.28-156.62c1.43-.83,1.93-2.66,1.1-4.1-.83-1.43-2.66-1.93-4.1-1.1L1000.59,51.78l-42.22-.09-76.17,43.98.14,21.47-219.02,126.45-15.76-9.1,170.14-98.23c2.75,1.32,6.06,1.98,9.37,1.98,3.71,0,7.41-.83,10.29-2.49,3.12-1.8,4.84-4.32,4.84-7.1s-1.74-5.34-4.91-7.17c-5.83-3.36-14.92-3.38-20.71-.04-3.12,1.8-4.84,4.32-4.84,7.1,0,1.9.82,3.67,2.33,5.19l-49.12,28.36-.11-17.96L1011.23,1.88l40.93.09,54.22-31.3c1.79.89,3.95,1.37,6.13,1.37,2.38,0,4.75-.53,6.6-1.6,1.95-1.13,3.02-2.68,3.02-4.39s-1.09-3.29-3.07-4.44c-3.74-2.16-9.57-2.17-13.28-.03-1.95,1.13-3.02,2.68-3.02,4.39,0,1.28.6,2.48,1.73,3.48L1051.63-.04l-40.93-.09-247.87,143.11.13,20.26-119.4,68.94-21.34-12.32,80.07-46.23-.12-18.85L955.87,8.3c2.33,1.2,5.19,1.81,8.06,1.81,3.06,0,6.11-.68,8.48-2.05,2.45-1.41,3.8-3.36,3.8-5.47s-1.37-4.1-3.86-5.53c-4.8-2.77-12.3-2.79-17.06-.03-2.45,1.41-3.8,3.36-3.8,5.47,0,1.7.88,3.29,2.49,4.59l-253.82,146.55.12,18.85-80.07,46.23-21.41-12.36,156.64-90.44-.08-12.72,217.99-125.86,44.14.09,138.58-80.01s.04-.04.06-.05c1.7.78,3.74,1.2,5.8,1.2,2.37,0,4.73-.52,6.53-1.56,1.83-1.06,2.84-2.5,2.84-4.06s-1.03-3.03-2.89-4.11c-3.63-2.1-9.53-2.11-13.14-.03-1.83,1.06-2.84,2.5-2.84,4.06,0,1.21.62,2.36,1.76,3.31l-137.24,79.23-44.14-.09-219.46,126.71.08,12.72-156.63,90.43-21.52-12.42,19.98-11.54-.09-15.08,152.26-87.91,27.8.06,108.16-62.44c2.07,1,4.56,1.5,7.06,1.5,2.79,0,5.58-.63,7.75-1.88h0c2.35-1.36,3.64-3.25,3.64-5.34s-1.31-4.02-3.69-5.39c-4.39-2.53-11.23-2.55-15.59-.03-2.35,1.36-3.64,3.25-3.64,5.34,0,1.43.62,2.77,1.76,3.91l-106.23,61.33-27.8-.06-153.72,88.75-.76.44.09,15.08-19.97,11.53-21.23-12.26,77.28-44.62-.12-18.58,32.03-18.49,42.68.09L896.65-14.68l-.13-21.34,82.39-47.57c3.63,1.95,8.26,2.93,12.88,2.93s9.59-1.05,13.23-3.15c3.72-2.15,5.76-5.06,5.76-8.22s-2.08-6.14-5.86-8.32c-7.37-4.25-19.32-4.28-26.64-.05-3.72,2.15-5.76,5.06-5.76,8.22,0,2.76,1.57,5.34,4.44,7.4l-82.45,47.6.13,21.34-192.25,111-41.42-.09-.12-18.91c4.02-.18,7.59-1.48,9.68-3.57,1.19-1.2,1.82-2.59,1.81-4.03-.03-4.29-5.55-7.66-12.57-7.68h-.04c-4.41,0-8.39,1.35-10.64,3.61-1.19,1.2-1.82,2.59-1.81,4.03.03,4.09,5.04,7.33,11.58,7.64l.12,19.33-32.76,18.92.12,18.58-77.27,44.61-19.91-11.49,53.58-30.94-.3-47.4,67.8-39.14,83.33.17,93.99-54.26-.16-24.9c4.48-.13,8.89-1.16,12.29-3.13,3.72-2.15,5.76-5.06,5.76-8.22s-2.08-6.14-5.86-8.32c-7.37-4.25-19.32-4.28-26.64-.05-3.72,2.15-5.76,5.06-5.76,8.22,0,3.18,2.08,6.14,5.86,8.32,3.43,1.98,7.86,3.03,12.34,3.18l.15,23.76-92.51,53.41-79.35-.17,63.08-36.42,30.72.06c.7,1.64,2.07,3.12,4,4.23,2.58,1.49,5.89,2.24,9.19,2.24s6.55-.73,9.09-2.2c2.85-1.65,4.49-4.09,4.49-6.69s-1.66-5.08-4.55-6.75c-5.14-2.97-13.17-2.98-18.29-.03-1.92,1.11-3.27,2.58-3.96,4.21l-32.04-.07-138.01,79.68.3,47.4-53.57,30.93-19.87-11.48,16.86-9.74-.29-45.28,235.08-135.72c3.82,1.65,9.22,1.5,12.67-.49,3.79-2.19,3.77-5.75-.05-7.95-3.82-2.2-9.98-2.22-13.77-.03-3.45,1.99-3.73,5.12-.87,7.33l-233.08,134.57-.17-27.02,55.54-32.06-.16-25.2c3.78-.19,7.47-1.14,10.42-2.84,3.45-1.99,5.35-4.73,5.35-7.72s-1.93-5.78-5.43-7.81c-6.72-3.88-17.21-3.9-23.89-.05-3.45,1.99-5.35,4.73-5.35,7.72s1.93,5.78,5.43,7.8c2.97,1.72,6.68,2.67,10.47,2.88l.15,23.48-55.54,32.06.47,74.6-16.85,9.73-50.5-29.16-59.62,34.43-16.01-9.24-.45-71.91-92.72-53.53-.15-24.21c3.66-.35,6.89-1.64,8.86-3.63,1.33-1.34,2.03-2.92,2.02-4.57h0c-.03-4.65-5.73-8.31-12.97-8.33-4.49.03-8.55,1.38-10.88,3.73-1.33,1.34-2.03,2.92-2.02,4.57.03,4.22,4.72,7.61,10.99,8.22l.17,26.53,92.72,53.53.16,25.23L174.43-11.71l-39.08-.08c-.79-3.54-5.62-6.2-11.64-6.22h-.04c-4.12,0-7.84,1.26-9.94,3.37-1.12,1.13-1.71,2.44-1.7,3.8.03,4.03,5.19,7.19,11.76,7.21h.04c4.12,0,7.84-1.26,9.94-3.38.84-.85,1.38-1.8,1.6-2.79l38.53.08,196.98,113.73.28,44.35,15.99,9.23-19.18,11.08-51.72-29.86-.29-46.88L200.04,25.01l-.46-.27-27.12-.06c-1.49-5.18-8.58-9.02-17.35-9.04h-.06c-6.14,0-11.68,1.89-14.85,5.07-1.74,1.74-2.65,3.79-2.63,5.92.04,6.16,7.79,11,17.65,11.03h.06c6.14,0,11.68-1.89,14.85-5.07,1.18-1.18,1.97-2.51,2.35-3.9l26.03.05,41.03,23.69-77.01-.16L17.65-31.38l-.12-18.47c5.16-.18,9.74-1.81,12.4-4.47,1.47-1.47,2.23-3.18,2.22-4.94-.03-5.31-6.94-9.48-15.73-9.5h-.06c-5.55,0-10.53,1.69-13.35,4.51-1.46,1.47-2.23,3.18-2.22,4.94.03,5.11,6.43,9.15,14.74,9.47l.12,19.63L161.98,54.26l81.02.17,68.96,39.82.29,46.88,51.71,29.85-19.73,11.39-74.61-43.08-.11-17.65-72.84-42.06-40.37-.08L45.43,15.5l-.11-17.85L-46.32-55.25c2.67-1.94,4.12-4.37,4.12-6.97,0-3.06-2-5.9-5.62-7.99-7.06-4.07-18.5-4.1-25.51-.05-3.57,2.06-5.53,4.86-5.53,7.89,0,3.06,2,5.9,5.62,7.99,3.54,2.05,8.2,3.07,12.84,3.07,4.38,0,8.73-.92,12.15-2.75L43.32-1.19l.11,17.85,112.33,64.85,40.37.08,71.39,41.22.11,17.65,74.61,43.07-20.73,11.97-16.01-9.24-.09-14.75-153.66-88.71-26.46-.06L-129.92-64.61l-.13-20.23c0-.55-.45-.99-1-.99h0c-.55,0-1,.45-.99,1.01l.13,21.38L124.76,84.74l26.46.06,152.2,87.87.09,14.75,16,9.24-20.64,11.92-154.29-89.08-.07-11.85L-46.71-2.77l-42.66-.09-96.45-55.69c1.05-1.06,1.62-2.28,1.62-3.57,0-1.95-1.28-3.77-3.61-5.11-4.59-2.65-12.04-2.67-16.6-.03-2.29,1.32-3.56,3.12-3.56,5.05s1.28,3.77,3.61,5.11c2.31,1.33,5.33,2,8.35,2,2.26,0,4.52-.38,6.46-1.12.15.18.32.34.53.46L-90.91.87l.46.27,42.66.09,188.32,108.73.07,11.85,154.27,89.07-19.73,11.39-78.74-45.46-.11-17.12L-45.76,19.93c.95-.83,1.45-1.83,1.45-2.88,0-1.43-.93-2.75-2.62-3.72-3.27-1.89-8.57-1.9-11.82-.02-1.66.96-2.57,2.27-2.57,3.68s.93,2.75,2.62,3.72c1.64.95,3.8,1.42,5.95,1.42,1.8,0,3.57-.35,5.06-1.02.02.02.04.04.06.05l241.94,139.69.11,17.12,78.73,45.45-22.09,12.75-115.6-66.74-.13-20.41L-110.69,6.98l-35.01-.07-196.69-113.56c-.48-.28-1.09-.11-1.37.37-.28.48-.11,1.09.37,1.37L-146.24,8.91l35.01.07,244.58,141.21.11,18.09-75.68-43.69c1.06-.9,1.63-1.99,1.63-3.14,0-1.52-.99-2.94-2.8-3.98-3.51-2.03-9.21-2.04-12.7-.03-1.78,1.03-2.75,2.42-2.75,3.93s.99,2.94,2.8,3.98c1.76,1.02,4.08,1.53,6.39,1.53,1.96,0,3.89-.39,5.5-1.12.02.02.04.04.06.05l193.16,111.52-19.94,11.51L13.9,124.58l-.15-23.43-41.27-23.83c1.73-1.8,2.67-3.9,2.67-6.14,0-3.4-2.11-6.49-5.95-8.71-7.04-4.06-18.02-4.08-25.01-.05-3.79,2.19-5.87,5.25-5.87,8.62s2.11,6.49,5.95,8.71c3.53,2.04,8.06,3.06,12.58,3.06,3.94,0,7.86-.78,11.12-2.33l40.8,23.56.12,19.56-33.04-.07-70.68-40.81-.15-23.84L-363.05-95.88c-1.44-.83-3.27-.34-4.1,1.1-.83,1.44-.34,3.27,1.1,4.1L-100.96,62.36l.15,23.84,75.05,43.33,36.37.08,212.53,122.7-15.16,8.75L41.06,164.69c1.42-1.46,2.19-3.17,2.19-5,0-2.75-1.71-5.25-4.82-7.05-5.71-3.3-14.62-3.31-20.3-.04-3.07,1.77-4.76,4.25-4.76,6.98,0,2.75,1.71,5.25,4.82,7.05,2.87,1.66,6.54,2.48,10.21,2.48,3.2,0,6.39-.63,9.04-1.9l47.18,27.24-30.25-.06L-188.36,54.25l-.15-23.11L-241.3.66c1.06-.96,1.64-2.12,1.64-3.35,0-1.69-1.07-3.24-3.01-4.36-3.66-2.11-9.38-2.12-13.01-.02-1.91,1.1-2.97,2.64-2.97,4.31s1.07,3.24,3.01,4.36c1.84,1.06,4.19,1.59,6.55,1.59,2.11,0,4.2-.45,5.92-1.31l52.68,30.41.15,23.11L53.84,196.4l34.26.07,115.87,66.9-20.64,11.92-78.55-45.35-31.93-.07L-176.47,85.92c1.53-1.26,2.36-2.78,2.36-4.42,0-2.09-1.34-4.02-3.78-5.43-4.7-2.71-12.04-2.73-16.71-.03-2.4,1.39-3.73,3.29-3.73,5.37s1.34,4.02,3.78,5.43c2.36,1.36,5.39,2.04,8.41,2.04,2.77,0,5.54-.58,7.78-1.74L72.31,231.86l31.93.07,77.09,44.51-20.73,11.97L6.63,199.5l-21.56-.05-214.76-123.99-.16-24.92L-365.76-27.93c1.08-.92,1.66-2.02,1.66-3.18,0-1.54-1.01-2.97-2.83-4.02-3.56-2.05-9.33-2.06-12.86-.03-1.8,1.04-2.79,2.45-2.79,3.98s1.01,2.97,2.83,4.02c1.79,1.03,4.13,1.55,6.47,1.55,1.99,0,3.95-.4,5.58-1.14.02.02.04.04.06.05L-231.84,51.7l.16,24.92L-15.47,201.46l21.56.05,152.53,88.06-20.82,12.02-19.72-11.38-25.55-.05L-57.48,203.54l-.1-15.7-105.73-61.04c1.07-1.1,1.65-2.39,1.65-3.77,0-2.07-1.29-3.95-3.63-5.3-4.3-2.48-11.01-2.5-15.28-.03-2.31,1.33-3.58,3.2-3.58,5.25s1.29,3.95,3.63,5.3c2.16,1.25,4.93,1.87,7.69,1.87,2.41,0,4.82-.48,6.81-1.43l105.45,60.88.1,15.7,152.19,87.87,25.55.05,17.52,10.12-20.54,11.86-75.81-43.77-31.48-.07-31.55-18.22-.15-24.1-190.86-110.19-36.15-.08-80.49-46.47c2.74-1.98,4.24-4.47,4.24-7.14,0-3.12-2.04-6.02-5.74-8.15-7.21-4.17-18.91-4.19-26.08-.05-3.64,2.1-5.65,4.96-5.65,8.06s2.04,6.02,5.74,8.15c3.62,2.09,8.38,3.14,13.12,3.14,4.48,0,8.93-.94,12.43-2.81l81.89,47.28,36.15.08L-26.73,230.18l.14,22.52-33.47-.07c-.8-3.72-5.87-6.52-12.2-6.54h-.04c-4.32,0-8.22,1.32-10.42,3.53-1.17,1.18-1.78,2.54-1.78,3.96.03,4.21,5.44,7.52,12.32,7.53h.04c4.32,0,8.22-1.32,10.42-3.53.89-.89,1.46-1.9,1.67-2.95l34.19.07,32.28,18.64,31.48.07,74.35,42.92-19.23,11.1-53.56-30.92-80.29-.17-65.75-37.96-.3-47.01-92.6-53.46-42.18-.09c-.4-2.72-2.37-5.22-5.65-7.12-7.21-4.16-18.91-4.19-26.08-.05-3.64,2.1-5.65,4.96-5.65,8.06s2.04,6.02,5.74,8.15c3.62,2.09,8.38,3.14,13.12,3.14s9.39-1.03,12.95-3.09c3.26-1.88,5.2-4.37,5.57-7.09l41.64.09,91.14,52.62.28,44.69-64.58-37.29-.09-15.03c2.35-.28,4.59-.95,6.44-2.02,2.81-1.62,4.42-4.02,4.42-6.59s-1.63-5.01-4.48-6.65c-5.04-2.91-12.92-2.93-17.94-.03-2.81,1.62-4.42,4.02-4.42,6.59,0,2.59,1.63,5.01,4.48,6.65,1.87,1.08,4.13,1.76,6.5,2.04l.11,17.93,135.97,78.5,80.29.17,49.9,28.81-19.18,11.08-16.65-9.61-76.73-.16-230.48-133.07c2.74-2.15,2.42-5.19-.97-7.15-3.73-2.16-9.76-2.17-13.47-.03-3.71,2.14-3.68,5.62.05,7.78,3.39,1.96,8.65,2.13,12.37.55L-28.56,331.61l-45.62-.1-54.71-31.59-42.83-.09c-.54-2.36-2.3-4.5-5.13-6.13-6.58-3.8-16.86-3.82-23.4-.05-3.38,1.95-5.25,4.64-5.25,7.58s1.89,5.68,5.32,7.66c3.31,1.91,7.54,2.86,11.77,2.86s8.37-.94,11.63-2.82c2.81-1.62,4.55-3.75,5.07-6.11l42.01.09,54.71,31.59,126.37.27,14.46,8.35L-4.55,383.77l69.89,40.35-35.24,20.34-120.78-.25-89.26,51.54-43.65-.09c-1.36-3.56-6.26-6.14-12.25-6.15h-.04c-4.34,0-8.28,1.36-10.55,3.64-1.3,1.31-1.99,2.86-1.98,4.48.03,4.55,5.58,8.12,12.64,8.13h.04c4.34,0,8.28-1.36,10.55-3.64.75-.75,1.29-1.58,1.61-2.46l44.69.09,89.26-51.54,42.24.09-186.36,107.6-.5.29.14,21.83c-3.61.18-6.82,1.36-8.7,3.25-1.09,1.1-1.67,2.38-1.66,3.71.02,3.92,5.05,7.01,11.44,7.02h.04c4.01,0,7.62-1.23,9.66-3.28,1.09-1.1,1.67-2.38,1.66-3.71-.02-3.72-4.54-6.68-10.44-6.99l-.13-20.68,188.84-109.03,74.55.16,38.17-22.04,18.64,10.76-69.62,40.19-78.75-.17-112.11,64.73.09,15.06c-5.17.36-9.75,2.11-12.49,4.86-1.7,1.7-2.59,3.7-2.57,5.78.04,6.01,7.58,10.73,17.18,10.75h.06c5.97,0,11.36-1.84,14.44-4.93,1.7-1.7,2.59-3.7,2.57-5.78-.03-5.59-6.56-10.06-15.19-10.67l-.08-12.76,41.53-23.98.27,43.04-139.44,80.5-32.45-.07c-.82-4.68-7.21-8.23-15.19-8.25h-.06c-5.39,0-10.23,1.64-12.96,4.38-1.43,1.43-2.18,3.1-2.16,4.81.03,5.17,6.75,9.22,15.28,9.24h.06c5.39,0,10.23-1.64,12.96-4.38,1.14-1.15,1.84-2.45,2.07-3.8l32.71.07h.27s140.41-81.06,140.41-81.06l.5-.29-.29-45.34,65.64-37.9,78.75.17,72.55-41.89,19.2,11.09-92.39,53.34-29.64-.06-70.16,40.51.14,22.6-106.71,61.61-29.97-.06-88.85,51.3c-6.88-3.67-17.6-3.61-24.24.22-3.47,2-5.38,4.73-5.38,7.68s1.94,5.74,5.47,7.77c3.44,1.99,7.96,2.98,12.46,2.98s8.92-.98,12.3-2.93c3.47-2,5.38-4.73,5.38-7.68,0-2.55-1.43-4.94-4.06-6.85l87.46-50.49,29.97.06,108.18-62.46-.14-22.6,68.69-39.66,29.64.06,93.86-54.19,20.2,11.66-35.97,20.77-24.77-.05-147.46,85.14-.5.29.09,14.82-245.9,141.97c-.48.28-.64.89-.37,1.37.19.32.52.5.87.5.17,0,.34-.04.5-.13l246.41-142.26.5-.29-.09-14.82,146.49-84.58,24.77.05,37.43-21.61,20.09,11.6L-12.88,573.37l-19.91-.04-183.17,105.75-1.01.58.15,23.89-93.44,53.95c-.21.12-.39.28-.53.46-4.43-1.7-10.46-1.43-14.33.81-2.23,1.29-3.46,3.03-3.46,4.91,0,1.9,1.25,3.66,3.51,4.97,2.24,1.29,5.18,1.94,8.11,1.94s5.8-.64,8-1.91c2.23-1.29,3.46-3.03,3.46-4.91,0-1.25-.55-2.45-1.58-3.49l94.27-54.42-.15-23.89,181.23-104.63,19.91.04,171.29-98.89,19.2,11.09-96.35,55.63-28.76-.06-233.63,134.89s-.04.04-.06.05c-3.19-1.42-7.76-1.32-10.67.36-1.61.93-2.5,2.2-2.5,3.58s.9,2.68,2.54,3.62c1.59.92,3.69,1.38,5.77,1.38s4.13-.45,5.7-1.36c1.61-.93,2.5-2.2,2.5-3.58,0-1.03-.5-2-1.43-2.83l232.3-134.12,28.76.06,97.82-56.48,21.53,12.43-131.84,76.12-34.02-.07h-.27s-236.39,136.48-236.39,136.48l-.5.29.12,19.6-189.08,109.16c-.48.28-.64.89-.37,1.37.19.32.52.5.87.5.17,0,.34-.04.5-.13l189.58-109.45.5-.29-.12-19.6,235.42-135.92,30.3.06-71.94,41.53s-.04.04-.06.05c-3.43-1.56-8.38-1.45-11.52.36-1.73,1-2.68,2.36-2.68,3.82s.97,2.86,2.72,3.87c1.71.99,3.96,1.48,6.2,1.48s4.44-.49,6.13-1.46c1.73-1,2.68-2.36,2.68-3.82,0-1.13-.56-2.19-1.59-3.08l207.35-119.71,19.38,11.19L-3.08,646.36l-39.33-.08-41.01,23.68c-6.84-3.25-16.64-3.04-23.02.64-3.7,2.13-5.73,5.13-5.73,8.42s2.06,6.35,5.81,8.51c3.44,1.98,7.84,2.98,12.24,2.98s8.71-.98,12.09-2.93c3.7-2.13,5.73-5.13,5.73-8.42,0-2.2-.92-4.26-2.61-6.03l37.84-21.85,36.68.08.1,16.14-67.94,39.22-40.04-.08-257.33,148.57c-1.44.83-1.93,2.66-1.1,4.1.56.96,1.56,1.5,2.6,1.5.51,0,1.02-.13,1.5-.4l255.93-147.76,40.04.08L1.72,670.95l-.13-20.36,227.99-131.63,14.69,8.48-181.53,104.81c-5.55-2.65-13.51-2.48-18.7.51-2.99,1.73-4.64,4.15-4.64,6.82s1.67,5.14,4.71,6.89c2.79,1.61,6.36,2.42,9.93,2.42s7.07-.79,9.81-2.38c2.99-1.73,4.64-4.15,4.64-6.82,0-1.79-.75-3.46-2.14-4.9l46.37-26.77.11,16.85-233.66,134.9-38.55-.08h-.27s-51.41,29.68-51.41,29.68c-3.56-1.77-8.74-1.71-12.1.24-1.87,1.08-2.89,2.57-2.89,4.21,0,1.65,1.04,3.16,2.93,4.25,1.79,1.03,4.08,1.55,6.36,1.55s4.53-.51,6.29-1.52c1.86-1.08,2.89-2.57,2.89-4.21,0-1.21-.56-2.34-1.6-3.29l50.07-28.91,38.55.08h.27s234.63-135.46,234.63-135.46l.5-.29-.12-19.16,133.56-77.11,20.09,11.6-95.7,55.25-.5.29.11,17.88-240.58,138.9c-4.57-2.35-11.34-2.28-15.71.24-2.34,1.35-3.63,3.21-3.63,5.23s1.31,3.92,3.68,5.29c2.29,1.32,5.23,1.99,8.17,1.99s5.81-.65,8.07-1.96c2.34-1.35,3.63-3.21,3.63-5.23,0-1.61-.82-3.11-2.32-4.35l240.2-138.68.5-.29-.11-17.88,96.2-55.54,20.2,11.66-168.32,97.18-.5.29.08,12.07-206.71,119.35-41.59-.09h-.27s-131.45,75.89-131.45,75.89c-.02.01-.04.04-.06.05-3.47-1.58-8.5-1.48-11.68.36-1.75,1.01-2.71,2.38-2.71,3.87,0,1.5.98,2.89,2.75,3.92,1.73,1,4.01,1.5,6.28,1.5s4.5-.49,6.2-1.48c1.75-1.01,2.71-2.38,2.71-3.87,0-1.14-.57-2.22-1.63-3.12l130.11-75.12,41.59.09h.27s207.68-119.91,207.68-119.91l.5-.29-.08-12.07,168.82-97.47,20.28,11.71-38.45,22.2-.76.44.09,14.3-144.36,83.35-26.37-.06L.39,746.49c-4.18-1.99-10.14-1.89-14.04.36-2.25,1.3-3.49,3.12-3.49,5.13s1.26,3.87,3.54,5.18c2.1,1.21,4.79,1.82,7.48,1.82s5.32-.6,7.39-1.79c2.25-1.3,3.49-3.12,3.49-5.13,0-1.35-.57-2.61-1.62-3.7l100.65-58.11,26.37.06,145.81-84.19.76-.44-.09-14.3,39.2-22.63,20.01,11.55-93.05,53.72-.5.29.11,17.62-30.34,17.52-40.21-.08h-.27S-11.69,775.2-11.69,775.2l-.5.29.13,20.24-78.09,45.09c-7.03-3.76-18-3.7-24.79.22-3.54,2.04-5.49,4.83-5.49,7.84,0,3.04,1.98,5.86,5.58,7.93,3.52,2.03,8.13,3.05,12.74,3.05s9.12-1,12.58-3c3.54-2.04,5.49-4.83,5.49-7.84,0-2.61-1.47-5.06-4.17-7.01l78.16-45.13-.13-20.24,182.3-105.25,39.22.08.11,17.83c-3.81.18-7.18,1.41-9.16,3.4-1.14,1.15-1.74,2.48-1.73,3.86.03,4.1,5.29,7.32,11.98,7.33h.04c4.2,0,7.98-1.28,10.13-3.44,1.14-1.15,1.74-2.48,1.73-3.86-.02-3.89-4.77-6.99-10.98-7.3l-.12-18.25,31.08-17.94-.11-17.62,93.55-54.01,18.7,10.8-71.08,41.04.28,44.95-64.34,37.15-78.61-.16h-.27s-88.68,51.2-88.68,51.2l-.5.29.15,23.6c-4.24.13-8.41,1.11-11.64,2.97-3.54,2.04-5.49,4.83-5.49,7.84,0,3.04,1.98,5.86,5.58,7.93,3.52,2.03,8.13,3.05,12.74,3.05s9.12-1,12.58-3c3.54-2.04,5.49-4.83,5.49-7.84,0-3.04-1.98-5.86-5.58-7.93-3.25-1.88-7.43-2.87-11.68-3.02l-.14-22.45,87.71-50.64,74.9.16-59.52,34.36-29.01-.06c-.69-1.55-1.99-2.94-3.82-4-4.91-2.84-12.59-2.85-17.47-.03-2.75,1.59-4.32,3.94-4.32,6.46,0,2.53,1.6,4.91,4.38,6.52,2.47,1.42,5.63,2.14,8.79,2.14s6.25-.7,8.69-2.11c1.81-1.05,3.1-2.43,3.78-3.98l30.33.06,131-75.63-.28-44.95,71.06-41.03,18.64,10.77-35.5,20.5-.76.44.27,42.98-222.94,128.72c-3.62-1.54-8.71-1.39-11.96.49-3.59,2.08-3.57,5.45.05,7.54,3.62,2.09,9.47,2.1,13.06.03,3.26-1.88,3.53-4.82.87-6.92l220.94-127.56.16,25.47-52.68,30.41.15,23.87c-3.57.19-7.06,1.09-9.84,2.7-3.29,1.9-5.11,4.52-5.11,7.39,0,2.89,1.84,5.54,5.19,7.47,3.21,1.85,7.33,2.78,11.44,2.78s8.14-.91,11.3-2.74c3.29-1.9,5.11-4.52,5.11-7.39,0-2.89-1.84-5.54-5.19-7.47-2.81-1.62-6.31-2.53-9.89-2.74l-.14-22.15,52.68-30.41-.45-70.75,36.24-20.93,67.58,39.02,71.59-41.34,34.56,19.95.43,68.85,88.78,51.26.15,23.05c-3.49.35-6.57,1.59-8.46,3.49-1.29,1.3-1.97,2.83-1.96,4.44.03,4.5,5.52,8.04,12.51,8.06h.04c4.29,0,8.19-1.34,10.44-3.6,1.29-1.3,1.97-2.83,1.96-4.44-.02-4.07-4.51-7.34-10.52-7.95l-.16-25.37-88.78-51.26-.15-24.01,187.76,108.41.23.13,37.4.08c.78,3.39,5.41,5.94,11.17,5.95h.04c3.96,0,7.53-1.21,9.55-3.24,1.08-1.09,1.65-2.36,1.64-3.67-.02-3.88-4.99-6.93-11.3-6.94h-.04c-3.96,0-7.53,1.21-9.55,3.24-.8.81-1.32,1.71-1.53,2.66l-36.85-.08-188.55-108.86-.27-42.52-34.54-19.94,18.2-10.51,68.75,39.7.28,44.89,111.5,64.38,25.93.05c1.48,4.97,8.28,8.64,16.68,8.66h.06c5.9,0,11.23-1.82,14.28-4.88,1.68-1.69,2.56-3.67,2.55-5.73-.04-5.95-7.5-10.62-16.99-10.64h-.06c-5.9,0-11.24,1.82-14.28,4.88-1.12,1.13-1.88,2.38-2.26,3.71l-24.84-.05-39.07-22.56,73.48.15,138.69,80.08.11,17.63c-4.93.18-9.32,1.75-11.86,4.3-1.41,1.42-2.15,3.06-2.14,4.76.03,5.11,6.67,9.12,15.1,9.14h.06c5.32,0,10.11-1.62,12.81-4.33,1.41-1.42,2.15-3.06,2.14-4.76-.03-4.9-6.16-8.79-14.11-9.11l-.12-18.78-139.92-80.78-.23-.13-77.5-.16-66.05-38.13-.28-44.89-68.74-39.69,18.76-10.83,90.67,52.35.11,16.9,69.55,40.16.23.13,38.66.08,106.14,61.28.11,17.09,87.71,50.64c-2.53,1.86-3.92,4.18-3.92,6.67,0,2.95,1.92,5.67,5.4,7.69,3.4,1.96,7.86,2.95,12.31,2.95s8.81-.96,12.16-2.9c3.43-1.98,5.32-4.68,5.32-7.59,0-2.95-1.92-5.67-5.4-7.69-6.6-3.81-17.19-3.92-23.94-.32l-87.65-50.6-.11-17.09-107.36-61.99-.23-.13-38.66-.08-68.33-39.45-.11-16.9-90.67-52.35,19.76-11.41,34.56,19.95.09,14.12,146.93,84.83.23.13,25.34.05,244.36,141.08.12,18.77-192.97,111.41c-.48.28-.64.89-.37,1.37.19.32.52.5.87.5.17,0,.34-.04.5-.13l193.98-111.99-.13-21.08-245.58-141.79-.23-.13-25.34-.05-145.71-84.12-.09-14.12-34.55-19.95,19.63-11.34,166.97,96.4.07,11.35,183.18,105.76,40.85.09,92.3,53.29c-.97,1.01-1.49,2.16-1.49,3.37,0,1.88,1.23,3.62,3.47,4.91,2.21,1.28,5.11,1.92,8.01,1.92s5.73-.63,7.91-1.88c2.2-1.27,3.42-3,3.42-4.85s-1.23-3.62-3.47-4.91c-3.85-2.22-9.78-2.51-14.13-.87-.15-.18-.32-.34-.54-.46l-94.4-54.5-40.85-.09-180.27-104.08-.07-11.35-166.95-96.39,18.76-10.83,94.62,54.63.1,16.39,231.78,133.82c-.88.8-1.36,1.74-1.36,2.74,0,1.38.89,2.65,2.52,3.58,1.58.91,3.64,1.37,5.71,1.37s4.08-.45,5.63-1.34c1.6-.92,2.48-2.18,2.48-3.54s-.89-2.65-2.51-3.58c-2.88-1.67-7.4-1.79-10.53-.4-.02-.02-.04-.04-.06-.05l-231.65-133.75-.1-16.39-94.61-54.63,21.07-12.16,129.92,75.01.12,19.55,235.39,135.9.23.13,33.53.07,188.33,108.73c.16.09.33.13.5.13.35,0,.68-.18.87-.5.28-.48.11-1.09-.37-1.37l-188.56-108.87-.23-.13-33.53-.07-234.16-135.19-.11-17.23,72.37,41.78c-.99.86-1.52,1.89-1.52,2.99,0,1.47.96,2.83,2.69,3.83,1.69.98,3.91,1.47,6.13,1.47s4.39-.48,6.05-1.44c1.71-.99,2.65-2.33,2.65-3.78s-.96-2.83-2.69-3.83c-3.12-1.8-8-1.92-11.37-.41-.02-.02-.04-.04-.06-.05l-204.17-117.88,18.92-10.92,225.35,130.1.14,22.41,39.45,22.78c-1.61,1.72-2.49,3.72-2.49,5.86,0,3.29,2.04,6.29,5.75,8.43,3.4,1.96,7.75,2.94,12.1,2.94s8.61-.97,11.96-2.9c3.66-2.11,5.68-5.08,5.68-8.35s-2.04-6.29-5.75-8.43c-6.34-3.66-16.02-3.91-22.74-.73l-38.97-22.5-.12-18.54,31.5.07,67.59,39.02.14,22.83,256.75,148.23c.47.27.99.4,1.5.4,1.04,0,2.04-.54,2.6-1.5.83-1.43.34-3.27-1.1-4.1l-253.77-146.51-.14-22.83-71.96-41.54-34.82-.07-222.64-128.54,14.3-8.26,179,103.35c-1.33,1.4-2.04,3.03-2.04,4.77,0,2.67,1.66,5.09,4.66,6.82,2.76,1.59,6.29,2.39,9.82,2.39s6.99-.78,9.7-2.35c2.96-1.71,4.6-4.11,4.6-6.76s-1.66-5.09-4.66-6.82c-5.15-2.97-13.01-3.17-18.47-.59l-44.93-25.94,28.71.06,232.41,134.18.14,22.13,50.52,29.17c-1,.92-1.54,2.02-1.54,3.2,0,1.63,1.03,3.13,2.9,4.21,1.77,1.02,4.03,1.53,6.29,1.53s4.48-.5,6.21-1.51c1.85-1.07,2.86-2.55,2.86-4.17s-1.03-3.13-2.9-4.21c-3.34-1.93-8.46-2.01-11.96-.28l-50.4-29.1-.14-22.13-233.63-134.89-.23-.13-32.72-.07-130.19-75.17,19.63-11.34,94.25,54.41.23.13,30.58.06,238.67,137.8c-1.44,1.2-2.23,2.67-2.23,4.23,0,2.02,1.29,3.88,3.64,5.24,2.27,1.31,5.17,1.96,8.07,1.96,2.87,0,5.74-.64,7.97-1.93,2.31-1.34,3.59-3.18,3.59-5.18s-1.29-3.88-3.64-5.24c-4.34-2.51-11.02-2.61-15.52-.31l-239.79-138.44-.23-.13-30.58-.06-93.01-53.7,19.76-11.41,166.48,96.12.23.13,20.64.04,205.61,118.71.15,23.87,130.14,75.14c-1.01.88-1.55,1.92-1.55,3.03,0,1.48.97,2.86,2.72,3.87,1.71.99,3.96,1.49,6.21,1.49s4.44-.49,6.13-1.46c1.73-1,2.68-2.36,2.68-3.83s-.97-2.86-2.72-3.87c-3.16-1.82-8.11-1.95-11.52-.41-.02-.02-.04-.04-.06-.05l-130.02-75.07-.15-23.87-206.83-119.42-.23-.13-20.64-.04-165.25-95.41,19.83-11.45,38.15,22.03,24.46.05,143.59,82.9.09,15.03,101.2,58.43c-1,1.06-1.54,2.28-1.54,3.59,0,2,1.25,3.83,3.51,5.13,2.08,1.2,4.74,1.8,7.39,1.8s5.26-.59,7.31-1.77c2.23-1.29,3.46-3.09,3.46-5.08s-1.25-3.83-3.51-5.13c-3.88-2.24-9.77-2.36-13.87-.42l-100.95-58.29-.09-15.03-145.77-84.16-24.46-.05-35.96-20.76,19.57-11.3,91.62,52.9.23.13,30.14.06,30.18,17.43.15,23.08,182.55,105.4.23.13,34.62.07,77.01,44.46c-2.6,1.9-4.03,4.28-4.03,6.83,0,3,1.96,5.79,5.52,7.84,3.48,2.01,8.04,3.01,12.59,3.01s9.01-.99,12.43-2.96c3.5-2.02,5.43-4.77,5.43-7.75,0-3-1.96-5.79-5.52-7.84-6.75-3.9-17.58-4-24.49-.32l-78.17-45.13-.23-.13-34.62-.07-181.33-104.69-.14-21.5,31.97.07c.79,3.57,5.65,6.25,11.71,6.26h.04c4.15,0,7.89-1.27,10.01-3.4,1.13-1.13,1.72-2.46,1.71-3.82-.03-4.05-5.23-7.24-11.84-7.25h-.04c-4.15,0-7.89,1.27-10.01,3.4-.85.85-1.39,1.81-1.61,2.81l-32.69-.07-30.68-17.71-.23-.13-30.14-.06-90.39-52.19,18.26-10.54,70.59,40.75,76.88.16,62.94,36.34.28,44.93,88.46,51.08.23.13,40.37.08c.4,2.61,2.29,4.99,5.43,6.81,3.48,2.01,8.04,3.01,12.59,3.01s9.01-.99,12.43-2.96c3.5-2.02,5.43-4.77,5.43-7.75,0-3-1.96-5.79-5.52-7.84-6.92-4-18.14-4.02-25.01-.05-3.12,1.8-4.98,4.18-5.35,6.79l-39.82-.08-87.24-50.37-.27-42.62,61.69,35.62.09,14.24c-2.23.27-4.36.91-6.11,1.93-2.72,1.57-4.29,3.91-4.29,6.41s1.58,4.87,4.34,6.46c2.44,1.41,5.57,2.11,8.69,2.11s6.19-.69,8.59-2.08c2.72-1.57,4.29-3.91,4.29-6.4,0-2.51-1.58-4.87-4.34-6.46-1.78-1.03-3.93-1.68-6.17-1.96l-.11-17.14-130.28-75.22-76.88-.16-66.93-38.64,18.2-10.51,35.22,20.33,73.52.15,220.63,127.38c-2.59,2.05-2.27,4.95.96,6.82,3.57,2.06,9.35,2.08,12.9.03,3.55-2.05,3.53-5.38-.05-7.45-3.23-1.86-8.24-2.04-11.8-.55l-218.63-126.23,43.47.09,52.39,30.25,40.98.09c.53,2.26,2.22,4.3,4.93,5.86,3.17,1.83,7.24,2.75,11.3,2.75s8.04-.9,11.16-2.71c3.26-1.88,5.05-4.48,5.05-7.31s-1.82-5.48-5.13-7.39c-6.32-3.65-16.19-3.67-22.47-.04-2.68,1.55-4.35,3.59-4.87,5.84l-40.16-.08-52.39-30.25-121.01-.25-33.03-19.07,72.08-41.62-69.89-40.35,15.87-9.16,127.34.27,94.11-54.34,46.12.1c1.38,3.75,6.53,6.47,12.84,6.48h.04c4.55,0,8.68-1.42,11.05-3.8,1.35-1.36,2.06-2.97,2.05-4.64-.03-4.73-5.84-8.45-13.22-8.47h-.04c-4.55,0-8.68,1.42-11.05,3.8-.8.8-1.37,1.69-1.7,2.63l-47.16-.1-94.11,54.34-44.86-.09,197.26-113.89-.15-23.04c3.82-.18,7.2-1.42,9.19-3.41,1.14-1.15,1.74-2.49,1.73-3.87-.03-4.11-5.3-7.33-12-7.35-4.24-.03-8.04,1.28-10.19,3.44-1.14,1.15-1.74,2.49-1.73,3.87.02,3.9,4.79,7,11.01,7.32l.14,21.89-199.24,115.03-78.49-.16-18.8,10.86-19.87-11.48,52.12-30.09,83.03.17,118.13-68.2-.1-15.92c5.47-.36,10.31-2.2,13.2-5.1,1.77-1.77,2.69-3.86,2.68-6.02-.04-6.28-7.95-11.21-18-11.23h-.06c-6.26,0-11.92,1.93-15.15,5.17-1.77,1.77-2.69,3.85-2.68,6.02.04,5.86,6.93,10.54,16.02,11.16l.09,13.62-43.95,25.38-.29-45.56,147.05-84.9,34.27.07c.83,4.93,7.56,8.68,15.97,8.7h.06c5.66,0,10.76-1.72,13.63-4.61,1.49-1.5,2.28-3.24,2.27-5.03-.03-5.41-7.09-9.67-16.06-9.69h-.06c-5.67,0-10.76,1.72-13.63,4.61-1.21,1.22-1.95,2.59-2.18,4.03l-34.8-.07-148.53,85.75.3,47.86-69.24,39.97-83.03-.17-55.05,31.78-20.41-11.78,76.09-43.93,31.25.07,73.94-42.69-.15-23.83,112.55-64.98,31.6.07,93.7-54.1c3.55,1.9,8.07,2.86,12.59,2.86s9.38-1.03,12.95-3.08c3.64-2.1,5.64-4.96,5.64-8.05s-2.04-6.01-5.74-8.15c-7.21-4.16-18.9-4.19-26.06-.05-3.64,2.1-5.64,4.96-5.64,8.05,0,2.69,1.53,5.22,4.32,7.23l-92.29,53.29-31.6-.07-114.02,65.83.15,23.83-72.46,41.84-31.25-.07-77.56,44.78-21.41-12.36,16.6-9.58,26.12.05,155.96-90.05-.1-16.2c0-.55-.49-1.03-1.01-.99-.55,0-1,.45-.99,1.01l.09,15.04-154.49,89.2-26.12-.05-18.07,10.43-21.34-12.32,156.22-90.2,20.99.04,194.1-112.07-.16-25.19,98.57-56.91c.21-.12.38-.28.53-.45,2.04.8,4.4,1.2,6.76,1.2,3.06,0,6.11-.67,8.43-2.01,2.34-1.35,3.63-3.18,3.63-5.15s-1.31-3.84-3.69-5.22c-4.69-2.71-12.3-2.73-16.96-.03-2.34,1.35-3.63,3.18-3.63,5.15,0,1.35.61,2.63,1.74,3.74l-99.39,57.38.16,25.19-191.16,110.37-20.99-.04-159.15,91.89-20.41-11.78,80.27-46.34,30.32.06,246.32-142.21s.04-.04.06-.05c1.55.7,3.4,1.07,5.27,1.07,2.18,0,4.35-.48,6-1.43,1.69-.98,2.63-2.31,2.63-3.75s-.95-2.8-2.67-3.8c-3.34-1.93-8.76-1.94-12.07-.02-1.69.98-2.63,2.31-2.63,3.75,0,1.1.54,2.13,1.54,3l-244.98,141.44-30.32-.06-81.74,47.19-22.81-13.17,117.68-67.94,36.15.08,249.73-144.18-.13-20.67,199.38-115.11c.48-.28.64-.89.37-1.37ZM972.91,82.49c2.75-1.59,6.46-2.38,10.18-2.38s7.53.81,10.34,2.43c2.26,1.31,3.56,2.95,3.56,4.52s-1.27,3.16-3.47,4.44c-5.54,3.2-14.93,3.17-20.52-.05-2.26-1.31-3.56-2.96-3.56-4.52,0-1.54,1.27-3.16,3.47-4.43ZM1106.78-36.69c1.51-.87,3.55-1.31,5.6-1.31s4.14.45,5.68,1.34c1.33.77,2.07,1.73,2.07,2.7s-.72,1.9-2.02,2.66c-3.04,1.76-8.21,1.75-11.28-.03-1.33-.77-2.07-1.73-2.07-2.7s.72-1.9,2.02-2.66ZM818.57,124.91c2.24-1.29,5.26-1.94,8.29-1.94s6.13.66,8.42,1.98c1.85,1.07,2.91,2.42,2.91,3.71s-1.04,2.59-2.84,3.63c-4.51,2.6-12.16,2.58-16.71-.04-1.85-1.07-2.91-2.42-2.91-3.71s1.04-2.59,2.84-3.63ZM956.29-1.25c2.06-1.19,4.76-1.78,7.48-1.78s5.49.61,7.58,1.81c1.84,1.06,2.86,2.41,2.86,3.8s-.99,2.7-2.8,3.74c-4.14,2.39-10.89,2.37-15.06-.03-1.84-1.06-2.86-2.41-2.86-3.8s.99-2.7,2.8-3.74ZM884.06,7.3c1.69-.98,3.97-1.46,6.25-1.46s4.62.5,6.34,1.49c1.39.8,2.19,1.82,2.19,2.8s-.78,1.96-2.14,2.74c-3.4,1.96-9.17,1.95-12.59-.03-1.39-.8-2.19-1.82-2.19-2.8s.78-1.96,2.14-2.74ZM974.52-92.18c0-2.41,1.69-4.71,4.76-6.49,3.37-1.94,7.79-2.92,12.23-2.92s8.98.99,12.41,2.97c3.13,1.81,4.86,4.15,4.86,6.59s-1.69,4.71-4.76,6.49c-6.77,3.91-17.82,3.88-24.64-.05-3.13-1.81-4.86-4.15-4.86-6.58ZM649.27,68.52c0-.91.41-1.79,1.23-2.61,1.86-1.86,5.39-3.02,9.22-3.02h.04c5.71.01,10.56,2.62,10.58,5.69,0,.91-.41,1.79-1.23,2.61-1.86,1.86-5.39,3.02-9.22,3.02h-.04c-5.71-.01-10.56-2.62-10.58-5.69ZM814.05-35.26c-3.13-1.81-4.86-4.15-4.86-6.58,0-2.41,1.69-4.71,4.76-6.49,3.37-1.94,7.79-2.91,12.23-2.91s8.98.99,12.41,2.97c3.13,1.81,4.86,4.15,4.86,6.58s-1.69,4.71-4.76,6.49c-3.13,1.81-7.18,2.76-11.31,2.89l-.03-4.6c1.83-.12,3.6-.56,5-1.37,3.31-1.91,3.29-5.02-.04-6.94-3.33-1.92-8.71-1.93-12.02-.03-3.31,1.91-3.29,5.02.04,6.94,1.41.81,3.19,1.26,5.02,1.39l.03,4.6c-4.12-.15-8.18-1.12-11.33-2.94ZM753.93,5.41c1.78-1.03,4.18-1.54,6.59-1.54s4.88.53,6.7,1.58c1.28.74,2.05,1.65,2.05,2.42s-.74,1.64-1.99,2.36c-3.58,2.07-9.67,2.06-13.29-.03-1.28-.74-2.05-1.65-2.05-2.42s.74-1.64,1.99-2.36ZM560.15-.53c0-1.87,1.37-3.69,3.85-5.12,2.85-1.65,6.61-2.47,10.37-2.47s7.61.84,10.52,2.52c2.53,1.46,3.93,3.31,3.93,5.21s-1.37,3.69-3.85,5.12c-5.74,3.31-15.11,3.29-20.89-.05-2.53-1.46-3.93-3.31-3.93-5.21ZM270.83-11.84c0-.57.28-1.15.86-1.73,1.55-1.55,4.68-2.55,8-2.55h.03c5.12.01,8.97,2.31,8.98,4.35,0,.57-.28,1.15-.86,1.73-1.55,1.55-4.68,2.55-8,2.55h-.03c-5.12-.01-8.97-2.31-8.98-4.35ZM167.28,29.76c-2.39,2.4-6.99,3.89-12.01,3.89h-.05c-8.02-.02-13.64-3.73-13.66-7.05,0-1.05.49-2.08,1.47-3.07,2.39-2.4,6.99-3.89,12.01-3.89h.05c8.02.02,13.64,3.73,13.66,7.05,0,1.05-.49,2.08-1.47,3.07ZM2.79-59.33c0-1.23.54-2.41,1.64-3.51,2.41-2.42,6.98-3.92,11.93-3.92h.05c7.42.02,13.71,3.46,13.73,7.51,0,1.23-.54,2.41-1.64,3.51-2.41,2.42-6.98,3.92-11.93,3.92h-.05c-7.42-.02-13.71-3.46-13.73-7.51ZM-72.24-56.12c-2.98-1.72-4.62-3.94-4.62-6.26,0-2.29,1.61-4.48,4.53-6.16,3.21-1.85,7.44-2.78,11.67-2.78s8.57.94,11.84,2.83c2.98,1.72,4.62,3.94,4.62,6.26s-1.61,4.48-4.53,6.16c-6.46,3.73-17,3.71-23.51-.05ZM-53.24,75.42c-2.19-1.27-3.45-2.86-3.45-4.38s1.23-3.05,3.37-4.29c2.69-1.55,6.3-2.32,9.93-2.32s7.34.79,10.08,2.37c2.19,1.27,3.45,2.86,3.45,4.38s-1.23,3.05-3.37,4.29c-5.4,3.12-14.57,3.1-20.01-.05ZM-254.65-.13c-1.28-.74-2.01-1.69-2.01-2.63s.7-1.85,1.97-2.58c1.48-.85,3.47-1.28,5.47-1.28s4.04.44,5.55,1.31c1.28.74,2.01,1.69,2.01,2.63s-.7,1.85-1.97,2.58c-2.97,1.72-8.02,1.71-11.01-.02ZM20.2,163.17c-1.79-1.04-2.82-2.34-2.82-3.59s1-2.5,2.76-3.52c2.19-1.26,5.13-1.89,8.09-1.89s5.98.64,8.21,1.93c1.79,1.04,2.82,2.34,2.82,3.59,0,1.22-1,2.5-2.76,3.52-4.4,2.54-11.86,2.52-16.3-.04ZM-193.54,85.1c-1.79-1.04-2.78-2.35-2.78-3.7s.97-2.62,2.73-3.64c2.01-1.16,4.65-1.74,7.3-1.74s5.36.59,7.41,1.77c1.79,1.04,2.78,2.35,2.78,3.7s-.97,2.62-2.73,3.64c-4.04,2.33-10.64,2.32-14.71-.03ZM-179.01,125.66c-1.35-.78-2.13-1.77-2.13-2.71s.76-1.89,2.08-2.65c1.65-.95,3.87-1.43,6.09-1.43s4.51.49,6.19,1.46h0c1.35.78,2.13,1.77,2.13,2.71s-.76,1.89-2.08,2.65c-3.32,1.91-8.94,1.9-12.28-.03ZM-358.73,71.42c-3.06-1.76-4.74-4.04-4.74-6.42s1.65-4.59,4.65-6.33c3.29-1.9,7.62-2.85,11.96-2.85s8.77.97,12.12,2.9c3.06,1.76,4.74,4.04,4.74,6.42s-1.65,4.59-4.65,6.32c-6.61,3.82-17.41,3.79-24.08-.05ZM-63.13,256.17c-1.81,1.82-5.26,2.95-9,2.95h-.04c-5.58-.01-10.3-2.55-10.32-5.54,0-.88.4-1.74,1.19-2.54,1.81-1.82,5.26-2.95,9-2.95h.04c5.58.01,10.3,2.55,10.32,5.54,0,.88-.4,1.74-1.19,2.54ZM-248.21,165.19c-6.61,3.82-17.41,3.8-24.08-.05-3.06-1.76-4.74-4.04-4.74-6.42s1.65-4.59,4.65-6.32c3.29-1.9,7.62-2.85,11.96-2.85s8.77.97,12.12,2.9c2.61,1.5,4.2,3.39,4.62,5.38l-8.49-.02c-.33-.88-1.08-1.71-2.26-2.4-3.26-1.88-8.52-1.89-11.76-.02-3.23,1.87-3.22,4.91.04,6.79s8.52,1.89,11.76.02c1.18-.68,1.92-1.51,2.23-2.39l8.5.02c-.39,1.99-1.96,3.87-4.55,5.36ZM-184.23,196.21c0-.72.72-1.57,1.92-2.26,1.74-1,4.07-1.5,6.42-1.5s4.75.51,6.52,1.53c1.24.71,1.98,1.58,1.98,2.32s-.72,1.57-1.92,2.26c-1.73,1-4.06,1.5-6.39,1.5-.02,0-.04,0-.06,0h-.02s-.04,0-.05,0c-2.33-.02-4.67-.53-6.41-1.53-1.24-.71-1.98-1.58-1.98-2.32ZM-178.28,306.35c-5.6,3.23-14.75,3.21-20.4-.05-2.47-1.42-3.82-3.22-3.82-5.06s1.33-3.58,3.75-4.98c2.79-1.61,6.45-2.41,10.12-2.41s7.43.82,10.27,2.46c2.47,1.42,3.82,3.22,3.82,5.06s-1.33,3.59-3.75,4.98ZM-228,499.3c-1.49,1.5-4.52,2.46-7.72,2.46h-.03c-4.94-.01-8.64-2.21-8.65-4.16,0-.54.27-1.08.81-1.63,1.49-1.5,4.52-2.46,7.72-2.46h.03c4.94.01,8.64,2.2,8.65,4.16,0,.54-.27,1.08-.81,1.63ZM-157.2,567.72c0,1-.47,1.99-1.41,2.93-2.31,2.32-6.75,3.76-11.61,3.76h-.05c-7.75-.02-13.16-3.58-13.18-6.78,0-1,.47-1.99,1.41-2.93,2.31-2.32,6.75-3.76,11.61-3.76h.05c7.74.02,13.16,3.58,13.18,6.78ZM-302.05,648.14c-2.33,2.34-6.75,3.79-11.55,3.79h-.05c-7.18-.02-13.26-3.34-13.29-7.25,0-1.19.52-2.33,1.58-3.39,2.33-2.34,6.75-3.79,11.55-3.79h.05c7.18.02,13.26,3.34,13.29,7.25,0,1.19-.52,2.33-1.58,3.39ZM-302.41,687.88c0,2.21-1.56,4.32-4.38,5.95-6.25,3.61-16.47,3.59-22.77-.05-2.88-1.66-4.47-3.81-4.47-6.04s1.56-4.32,4.38-5.95c3.11-1.8,7.2-2.69,11.3-2.69s8.3.92,11.46,2.74c2.88,1.66,4.47,3.81,4.47,6.04ZM-84.54,683.25c-5.22,3.01-14.07,2.99-19.33-.05-2.1-1.21-3.31-2.74-3.31-4.18s1.18-2.91,3.23-4.09c2.59-1.5,6.09-2.25,9.59-2.25s7.09.76,9.74,2.29c2.1,1.21,3.31,2.74,3.31,4.18s-1.18,2.91-3.23,4.09ZM-211.47,796.35c-2.87,1.66-7.75,1.65-10.65-.02-1.23-.71-1.93-1.63-1.93-2.52,0-.89.67-1.77,1.89-2.47,2.88-1.66,7.75-1.65,10.65.02,1.23.71,1.93,1.63,1.93,2.52,0,.89-.67,1.77-1.89,2.47ZM61.86,643.04c-4.25,2.45-11.46,2.44-15.75-.04-1.72-.99-2.71-2.24-2.71-3.42s.96-2.39,2.64-3.36c2.11-1.22,4.96-1.83,7.81-1.83s5.78.62,7.93,1.87c1.72.99,2.71,2.24,2.71,3.42s-.96,2.39-2.64,3.36ZM-68.73,762.74c-3.91,2.26-10.29,2.24-14.23-.03-1.73-1-2.68-2.26-2.68-3.56s.93-2.52,2.63-3.5c1.95-1.12,4.5-1.68,7.07-1.68s5.19.57,7.17,1.71c1.73,1,2.68,2.26,2.68,3.56s-.93,2.52-2.63,3.5ZM-.24,754.6c-3.2,1.85-8.64,1.84-11.87-.03-1.3-.75-2.04-1.69-2.04-2.59s.73-1.8,1.99-2.53c1.59-.92,3.74-1.38,5.89-1.38s4.36.47,5.98,1.41c1.3.75,2.04,1.69,2.04,2.58s-.73,1.8-1.99,2.53ZM-86.05,849.02c0,2.27-1.6,4.43-4.49,6.11-6.41,3.7-16.87,3.67-23.32-.05-2.95-1.71-4.58-3.91-4.58-6.2,0-2.27,1.6-4.43,4.49-6.11,6.41-3.7,16.87-3.67,23.32.05,2.95,1.71,4.58,3.91,4.58,6.2ZM222.43,696.61c0,.85-.38,1.67-1.15,2.44-1.75,1.76-5.09,2.85-8.71,2.85h-.04c-5.39-.01-9.96-2.46-9.98-5.34,0-.85.38-1.67,1.15-2.44,1.75-1.76,5.09-2.85,8.71-2.85h.04c5.39.01,9.96,2.46,9.98,5.34ZM66.18,795.08c2.95,1.71,4.58,3.91,4.58,6.2,0,2.27-1.6,4.43-4.49,6.11-6.4,3.7-16.86,3.67-23.32-.05-2.95-1.71-4.58-3.91-4.58-6.2,0-2.27,1.6-4.43,4.49-6.11,2.95-1.7,6.76-2.61,10.65-2.73l.03,4.31c-1.72.12-3.38.54-4.69,1.3-3.14,1.81-3.12,4.76.04,6.58,3.16,1.82,8.26,1.83,11.4.02,3.14-1.81,3.12-4.76-.04-6.58-1.32-.76-2.99-1.19-4.71-1.32l-.03-4.31c3.88.14,7.7,1.07,10.67,2.78ZM123.16,756.35c-3.36,1.94-9.08,1.93-12.47-.03-1.18-.68-1.88-1.5-1.88-2.19,0-.67.68-1.47,1.82-2.13,1.67-.97,3.93-1.45,6.19-1.45s4.58.49,6.29,1.48c1.18.68,1.88,1.5,1.88,2.19s-.68,1.47-1.82,2.13ZM306.94,762.09c0,1.75-1.28,3.45-3.61,4.79-5.42,3.13-14.27,3.11-19.73-.04-2.38-1.37-3.69-3.1-3.69-4.87,0-1.75,1.28-3.45,3.61-4.79,2.7-1.56,6.24-2.33,9.8-2.33s7.19.79,9.94,2.38c2.38,1.37,3.69,3.1,3.69,4.87ZM656.81,776.42c0,.52-.26,1.06-.79,1.59-1.47,1.47-4.45,2.42-7.61,2.42h-.03c-4.86,0-8.5-2.16-8.52-4.08,0-.52.26-1.06.79-1.59,1.47-1.47,4.45-2.42,7.6-2.42h.03c4.86,0,8.5,2.16,8.52,4.08ZM756.11,736.65c2.28-2.29,6.66-3.7,11.45-3.7h.05c7.63.02,12.97,3.53,12.99,6.67,0,.98-.46,1.95-1.38,2.88-2.28,2.29-6.66,3.7-11.44,3.7h-.05c-7.63-.02-12.97-3.53-12.99-6.67,0-.98.46-1.95,1.38-2.88ZM913.51,821.9c0,1.17-.52,2.29-1.56,3.34-2.3,2.31-6.66,3.74-11.39,3.74h-.05c-7.08-.01-13.08-3.29-13.11-7.15,0-1.17.52-2.29,1.56-3.34,2.3-2.31,6.66-3.74,11.39-3.74h.05c7.08.02,13.08,3.29,13.11,7.15ZM985.38,818.86c2.84,1.64,4.4,3.75,4.4,5.95,0,2.17-1.53,4.26-4.32,5.86-6.17,3.57-16.25,3.54-22.47-.05-2.84-1.64-4.4-3.75-4.4-5.95s1.53-4.26,4.32-5.86c6.17-3.56,16.25-3.54,22.47.05ZM967.15,692.96c2.07,1.19,3.25,2.69,3.25,4.1s-1.16,2.85-3.18,4.02c-5.14,2.97-13.87,2.95-19.06-.05-2.07-1.19-3.25-2.69-3.25-4.1s1.16-2.85,3.17-4.02c5.14-2.97,13.87-2.95,19.06.05ZM1160.05,765.25c1.21.7,1.9,1.6,1.9,2.48s-.66,1.74-1.86,2.43c-2.84,1.64-7.65,1.63-10.5-.02-1.21-.7-1.9-1.6-1.9-2.48s.66-1.74,1.86-2.43c1.41-.81,3.31-1.22,5.21-1.22s3.86.42,5.29,1.25ZM896.85,608.91c1.69.98,2.66,2.2,2.66,3.36s-.95,2.34-2.6,3.29c-4.19,2.42-11.3,2.4-15.52-.04-1.69-.98-2.66-2.2-2.66-3.36s.95-2.34,2.6-3.29c2.08-1.2,4.89-1.8,7.7-1.8s5.7.61,7.82,1.84ZM1101.53,683.63c1.7.98,2.64,2.23,2.64,3.51s-.92,2.48-2.59,3.45c-3.85,2.23-10.15,2.21-14.04-.03-1.7-.98-2.64-2.23-2.64-3.5s.92-2.48,2.59-3.45c1.92-1.11,4.44-1.66,6.97-1.66s5.12.56,7.07,1.69ZM1087.61,644.82c1.28.74,2.01,1.66,2.01,2.54s-.71,1.77-1.96,2.49c-3.16,1.82-8.51,1.81-11.7-.03-1.28-.74-2.01-1.66-2.01-2.54s.71-1.77,1.96-2.49c3.16-1.82,8.52-1.81,11.7.03ZM1259.71,696.74c2.91,1.68,4.52,3.85,4.52,6.11,0,2.23-1.57,4.37-4.43,6.02-6.32,3.65-16.64,3.63-23.01-.05-2.91-1.68-4.52-3.85-4.52-6.11s1.57-4.37,4.43-6.02c6.32-3.65,16.64-3.63,23.01.05ZM976.71,519.82c1.73-1.73,5.02-2.81,8.6-2.81h.04c5.32.01,9.82,2.42,9.84,5.26,0,.83-.38,1.64-1.13,2.4-1.73,1.73-5.02,2.81-8.59,2.81h-.04c-5.32-.01-9.83-2.42-9.84-5.26,0-.83.38-1.64,1.13-2.4ZM1153.92,606.94c6.32-3.65,16.64-3.63,23.01.05,2.91,1.68,4.52,3.85,4.52,6.11,0,2.23-1.57,4.37-4.43,6.02-6.32,3.65-16.64,3.63-23.01-.05-2.46-1.42-3.98-3.19-4.39-5.07l8.1.02c.32.82,1.03,1.61,2.15,2.25,3.12,1.8,8.16,1.81,11.26.02,3.1-1.79,3.08-4.7-.04-6.5-3.12-1.8-8.16-1.81-11.26-.02-1.11.64-1.81,1.42-2.12,2.24l-8.1-.02c.38-1.88,1.88-3.65,4.32-5.06ZM1092.53,577.2c0,.65-.67,1.43-1.79,2.07-3.32,1.91-8.94,1.9-12.28-.03-1.15-.67-1.84-1.46-1.84-2.13s.67-1.43,1.79-2.07c1.64-.95,3.84-1.42,6.06-1.42.02,0,.05,0,.07,0h.02s.02,0,.04,0c2.22.01,4.44.49,6.1,1.45,1.15.67,1.84,1.46,1.84,2.13ZM1086.97,471.8c5.35-3.09,14.08-3.06,19.47.04,2.34,1.35,3.63,3.05,3.63,4.79s-1.26,3.39-3.55,4.71c-5.35,3.09-14.08,3.06-19.47-.04-2.34-1.35-3.63-3.05-3.63-4.79s1.26-3.39,3.55-4.71ZM1124.16,276.47c1.59-1.6,4.81-2.62,8.21-2.62h.04c5.26.01,9.21,2.38,9.23,4.49,0,.6-.29,1.2-.89,1.8-1.59,1.6-4.81,2.62-8.21,2.62h-.04c-5.26-.01-9.21-2.38-9.23-4.49,0-.6.29-1.2.89-1.8ZM1049.49,204.41c0-1.09.5-2.15,1.51-3.17,2.46-2.46,7.17-3.99,12.32-3.99h.05c6.6.01,13.98,3,14.01,7.25,0,1.09-.5,2.15-1.51,3.17-2.46,2.46-7.17,3.99-12.32,3.99h-.05c-6.6-.01-13.98-3-14.01-7.25ZM1202.27,119.58c2.47-2.48,7.15-4.02,12.22-4.02h.05c7.6.02,14.04,3.54,14.06,7.7,0,1.25-.57,2.5-1.68,3.61-2.48,2.49-7.19,4.06-12.27,4.02-7.6-.02-14.04-3.54-14.06-7.7,0-1.25.57-2.5,1.68-3.61ZM1202.64,77.72c0-2.35,1.65-4.59,4.64-6.32,3.29-1.9,7.61-2.85,11.95-2.85s8.77.97,12.11,2.9c3.05,1.76,4.74,4.04,4.74,6.42s-1.65,4.59-4.64,6.32c-6.61,3.82-17.4,3.79-24.06-.05-3.05-1.76-4.74-4.04-4.74-6.42Z" style="fill: url(#linear-gradient-2);"/>
      </g>
    </g>
    <g id="Layer_2" data-name="Layer 2">
      <polygon points="91.31 383.77 450.77 176.22 810.24 383.77 450.77 591.32 91.31 383.77" style="fill: url(#linear-gradient-3);"/>
      <polygon points="91.31 328.42 450.77 120.87 810.24 328.42 450.77 535.98 91.31 328.42" style="fill: url(#linear-gradient-4);"/>
      <g style="opacity: .3;">
        <path d="M450.77,122.02l357.46,206.4-357.46,206.4L93.31,328.42,450.77,122.02M450.77,120.87L91.31,328.42l359.46,207.55,359.46-207.55L450.77,120.87h0Z" style="fill: url(#linear-gradient-5);"/>
      </g>
    </g>
    <g id="Layer_5" data-name="Layer 5">
      <path d="M522.13,371.42c-40.78,23.55-107.32,23.41-148.4-.31-41.08-23.72-41.32-62.13-.54-85.68,40.78-23.55,107.32-23.41,148.4.31,6.7,3.87,12.05,8.09,16.65,12.6l81.37.17c-8.38-15.8-23.44-30.75-45.16-43.29-70.5-40.7-184.52-40.94-254.5-.53-69.99,40.41-69.57,106.24.92,146.94,70.5,40.7,184.52,40.94,254.5.53,21.56-12.45,36.43-27.34,44.62-43.1l-81.37-.17c-4.55,4.49-9.84,8.69-16.49,12.53Z" style="fill: url(#linear-gradient-6); filter: url(#outer-glow-7);"/>
    </g>
    <g id="Layer_4" data-name="Layer 4">
      <path d="M522.13,364.5c-40.78,23.55-107.32,23.41-148.4-.31-41.08-23.72-41.32-62.13-.54-85.68,40.78-23.55,107.32-23.41,148.4.31,6.7,3.87,12.05,8.09,16.65,12.6l81.37.17c-8.38-15.8-23.44-30.75-45.16-43.29-70.5-40.7-184.52-40.94-254.5-.53-69.99,40.41-69.57,106.24.92,146.94,70.5,40.7,184.52,40.94,254.5.53,21.56-12.45,36.43-27.34,44.62-43.1l-81.37-.17c-4.55,4.49-9.84,8.69-16.49,12.53Z" style="fill: url(#linear-gradient-7);"/>
    </g>
    <g id="Layer_14" data-name="Layer 14">
      <g style="opacity: .3;">
        <path d="M446.35,218.62c48.16,0,93.48,10.85,127.6,30.55,20.13,11.62,35.29,25.91,43.98,41.42l-79.28-.17c-4.99-4.83-10.41-8.92-16.56-12.47-20.12-11.62-46.83-18.01-75.19-18.01s-54.43,6.29-74.2,17.7c-19.95,11.52-30.93,26.94-30.93,43.42s11.18,32.27,31.47,43.99c20.12,11.62,46.83,18.01,75.19,18.01s54.43-6.29,74.2-17.7c6.11-3.53,11.48-7.58,16.4-12.4l79.3.17c-8.48,15.47-23.47,29.7-43.45,41.24-33.52,19.36-78.24,30.02-125.9,30.02s-93.48-10.85-127.6-30.55c-17.19-9.92-30.49-21.48-39.54-34.34-8.7-12.37-13.11-25.41-13.11-38.76,0-27.25,18.37-52.86,51.72-72.11,33.53-19.36,78.24-30.02,125.9-30.02M446.35,217.62c-45.84,0-91.57,10.04-126.4,30.15-69.99,40.41-69.57,106.24.92,146.94,35.42,20.45,81.82,30.68,128.1,30.68s91.57-10.04,126.4-30.15c21.56-12.45,36.43-27.34,44.62-43.1l-81.37-.17c-4.55,4.49-9.84,8.69-16.49,12.53-20.29,11.72-46.97,17.57-73.7,17.57s-54.05-5.96-74.69-17.88c-41.08-23.72-41.32-62.13-.54-85.68,20.29-11.72,46.97-17.57,73.7-17.57s54.05,5.96,74.69,17.88c6.7,3.87,12.05,8.09,16.65,12.6l81.37.17c-8.38-15.8-23.44-30.75-45.16-43.29-35.42-20.45-81.82-30.68-128.1-30.68h0Z" style="fill: url(#linear-gradient-8);"/>
      </g>
    </g>
    <g id="Layer_7" data-name="Layer 7">
      <polygon points="-4.55 383.77 -4.55 -197.38 474.74 -280.4 906.09 -197.38 906.09 383.77 450.77 646.67 -4.55 383.77" style="fill: url(#linear-gradient-9); mix-blend-mode: overlay; opacity: .5;"/>
    </g>
    <g id="Layer_15" data-name="Layer 15">
      <polygon points="-4.55 383.77 -4.55 217.62 19.42 231.56 19.42 369.93 43.38 383.77 43.38 300.75 67.35 314.59 67.35 286.91 91.31 300.75 91.31 383.77 115.27 397.61 115.27 369.93 139.24 383.77 139.24 439.12 163.2 452.96 163.2 369.93 187.17 383.77 187.17 411.44 211.13 425.28 211.13 369.93 235.1 383.77 235.1 411.44 259.06 425.28 259.06 452.96 283.02 466.79 283.02 522.14 306.99 535.98 306.99 425.39 330.95 439.12 330.95 494.47 354.92 508.3 354.92 535.98 378.88 549.81 378.88 439.12 402.85 452.96 402.85 480.63 426.81 494.47 426.81 522.14 450.77 535.98 450.77 646.67 -4.55 383.77" style="fill: url(#linear-gradient-10); filter: url(#outer-glow-14); mix-blend-mode: overlay;"/>
      <polygon points="-4.55 383.77 -4.55 300.75 19.42 286.91 19.42 342.26 43.38 328.42 43.38 300.75 67.35 286.91 67.35 342.26 91.31 328.42 91.31 217.62 115.27 203.89 115.27 259.24 139.24 245.4 139.24 273.07 187.17 245.4 187.17 190.05 211.13 176.22 211.13 259.24 235.1 245.4 235.1 190.05 259.06 176.22 259.06 203.89 283.02 190.05 283.02 217.62 306.99 203.89 306.99 120.87 330.95 107.03 330.95 134.71 354.92 120.87 354.92 176.22 402.85 148.54 402.85 37.85 426.81 24.01 426.81 107.03 450.77 93.19 450.77 120.87 -4.55 383.77" style="fill: url(#linear-gradient-11); filter: url(#outer-glow-15); mix-blend-mode: screen; opacity: .1;"/>
    </g>
    <g id="Layer_20" data-name="Layer 20">
      <g style="filter: url(#AI_GaussianBlur_7);">
        <polygon points="152.88 204.82 103.55 176.34 103.55 183.27 140.88 204.82 152.88 204.82" style="fill: url(#linear-gradient-12);"/>
        <path d="M110.54,204.81l-5.85-3.38c1.24,1.95,3.39,3.27,5.85,3.38Z" style="fill: url(#linear-gradient-13);"/>
        <path d="M194.43,177.97l10.4,6v-2.31l-8.41-4.85-.11-17.12-91.55-52.86c-.37.56-.66,1.16-.87,1.81l90.42,52.21.11,17.12Z" style="fill: url(#linear-gradient-14);"/>
        <polygon points="140.61 121.81 204.82 158.88 204.82 154.27 144.59 119.49 144.52 107.64 137.44 103.55 129.44 103.55 140.53 109.96 140.61 121.81" style="fill: url(#linear-gradient-15);"/>
        <polygon points="196.76 204.82 135.47 169.44 135.34 149.03 103.55 130.67 103.55 132.98 133.35 150.19 133.46 168.28 103.55 151.01 103.55 153.32 192.76 204.82 196.76 204.82" style="fill: url(#linear-gradient-16);"/>
        <polygon points="204.82 113.43 187.71 103.55 183.71 103.55 204.82 115.74 204.82 113.43" style="fill: url(#linear-gradient-17);"/>
      </g>
    </g>
    <g id="Layer_21" data-name="Layer 21">
      <g>
        <rect x="103.55" y="103.55" width="101.27" height="101.27" rx="7.31" ry="7.31" style="fill: #fff; opacity: .2;"/>
        <path d="M197.51,104.55c3.48,0,6.31,2.83,6.31,6.31v86.65c0,3.48-2.83,6.31-6.31,6.31h-86.65c-3.48,0-6.31-2.83-6.31-6.31v-86.65c0-3.48,2.83-6.31,6.31-6.31h86.65M197.51,103.55h-86.65c-4.04,0-7.31,3.27-7.31,7.31v86.65c0,4.04,3.27,7.31,7.31,7.31h86.65c4.04,0,7.31-3.27,7.31-7.31v-86.65c0-4.04-3.27-7.31-7.31-7.31h0Z" style="fill: url(#linear-gradient-18);"/>
      </g>
      <path d="M154.19,123.96c-15.65,0-27.91,7.15-27.91,16.28v27.91c0,9.13,12.26,16.28,27.91,16.28s27.91-7.15,27.91-16.28v-27.91c0-9.13-12.26-16.28-27.91-16.28ZM177.44,154.19c0,2.8-2.29,5.65-6.28,7.83-4.49,2.45-10.52,3.8-16.97,3.8s-12.48-1.35-16.97-3.8c-3.99-2.18-6.28-5.03-6.28-7.83v-4.84c4.96,4.36,13.44,7.16,23.26,7.16s18.3-2.81,23.26-7.16v4.84ZM137.21,132.41c4.49-2.45,10.52-3.8,16.97-3.8s12.48,1.35,16.97,3.8c3.99,2.18,6.28,5.03,6.28,7.83s-2.29,5.65-6.28,7.83c-4.49,2.45-10.52,3.8-16.97,3.8s-12.48-1.35-16.97-3.8c-3.99-2.18-6.28-5.03-6.28-7.83s2.29-5.65,6.28-7.83ZM171.16,175.97c-4.49,2.45-10.52,3.8-16.97,3.8s-12.48-1.35-16.97-3.8c-3.99-2.18-6.28-5.03-6.28-7.83v-4.84c4.96,4.36,13.44,7.16,23.26,7.16s18.3-2.81,23.26-7.16v4.84c0,2.8-2.29,5.65-6.28,7.83Z" style="fill: #fff;"/>
      <path d="M179.77,140.23c0,7.71-11.45,13.95-25.58,13.95s-25.58-6.25-25.58-13.95,11.45-13.95,25.58-13.95,25.58,6.25,25.58,13.95Z" style="fill: #fff; isolation: isolate; opacity: .2;"/>
    </g>
  </g>
</svg>